<svg xmlns="http://www.w3.org/2000/svg" aria-hidden="true" style="position:absolute;width:0;height:0;overflow:hidden">
  <defs>
    <symbol id="icon-Vector" viewBox="0 0 44 32">
      <path d="M18.151 0v13.438c0 10.371-6.784 17.4-16.333 19.289L.009 28.816c4.422-1.667 7.264-6.615 7.264-10.635H0V-.001h18.151zm25.485 0v13.438c0 10.371-6.815 17.402-16.364 19.289l-1.811-3.911c4.424-1.667 7.265-6.615 7.265-10.635h-7.242V-.001h18.151z"/>
    </symbol>
    <symbol id="icon-close-black-18dp-2-1" viewBox="0 0 32 32">
      <path d="M32 3.223 28.777 0 16 12.777 3.223 0 0 3.223 12.777 16 0 28.777 3.223 32 16 19.223 28.777 32 32 28.777 19.223 16 32 3.223z"/>
    </symbol>
    <symbol id="icon-close-1" viewBox="0 0 32 32">
      <path d="M32 3.223 28.777 0 16 12.777 3.223 0 0 3.223 12.777 16 0 28.777 3.223 32 16 19.223 28.777 32 32 28.777 19.223 16 32 3.223z"/>
    </symbol>
    <symbol id="icon-logo" viewBox="0 0 30 32">
      <path d="M17.229 26.492c-.038 0-.057.02-.057.059v.059c0 .039.019.059.057.059h7.539c.057 0 .086-.02.086-.059v-.059c0-.039-.029-.059-.086-.059h-.885c-.59 0-1.009-.108-1.256-.323-.228-.215-.419-.567-.571-1.056-.952-3.011-1.837-6.022-2.656-9.033s-1.628-6.041-2.427-9.091c-.114-.411-.114-.753 0-1.026s.381-.411.8-.411h1.713c.057 0 .086-.029.086-.088v-.029c0-.039-.029-.059-.086-.059H8.064c-.076 0-.114.02-.114.059v.029c0 .059.038.088.114.088h2.113c.381 0 .571.176.571.528 0 .156-.019.313-.057.469a11.4 11.4 0 0 1-.2.616c-.171.45-.381.987-.628 1.613-.228.606-.466 1.232-.714 1.877s-.485 1.271-.714 1.877a329.08 329.08 0 0 1-.6 1.584 94.335 94.335 0 0 1-1.114 2.815 59.806 59.806 0 0 0-.971 2.639 28.98 28.98 0 0 0-.714 2.346 8.719 8.719 0 0 0-.257 1.994c0 1.036.247 1.789.742 2.258s1.114.704 1.856.704a2.9 2.9 0 0 0 1.656-.499 7.897 7.897 0 0 0 1.399-1.29c.457-.528.885-1.085 1.285-1.672.419-.606.847-1.163 1.285-1.672a7.018 7.018 0 0 1 1.371-1.29 2.706 2.706 0 0 1 1.599-.528c.914 0 1.618.274 2.113.821s.857 1.173 1.085 1.877c.152.43.267.841.343 1.232.095.391.19.743.286 1.056a1.8 1.8 0 0 1 .029.557.875.875 0 0 1-.171.528c-.095.137-.267.254-.514.352-.228.098-.543.147-.942.147h-.971zM9.633 14.585c1.085 0 1.875.254 2.37.763.495.489.742 1.29.742 2.405v3.05c-.419.313-.828.645-1.228.997s-.79.675-1.171.968a8.3 8.3 0 0 1-1.114.733 2.46 2.46 0 0 1-1.085.264 2.348 2.348 0 0 1-1.456-.499c-.438-.352-.657-.929-.657-1.73 0-.489.076-1.046.228-1.672.171-.645.362-1.29.571-1.936.228-.645.457-1.261.685-1.848s.419-1.085.571-1.496h1.542zm1.114-7.097c.228-.587.514-.968.857-1.144a2.899 2.899 0 0 1 1.142-.293v5.103c0 1.154-.238 1.984-.714 2.493s-1.275.762-2.399.762H8.148l.857-2.288c.286-.782.552-1.496.8-2.141s.447-1.193.6-1.642c.171-.45.286-.733.343-.851zm7.139 10.411c.038.137.076.303.114.499s.057.381.057.557c.019.176.009.342-.029.499-.019.137-.076.235-.171.293a.473.473 0 0 1-.2.029c-.19 0-.419-.039-.685-.117-.247-.098-.59-.147-1.028-.147-.533 0-1.047.117-1.542.352-.495.215-.99.489-1.485.821v-2.933c0-1.134.228-1.945.685-2.434.476-.489 1.275-.733 2.399-.733H17c.152.547.295 1.105.428 1.672l.457 1.642zm-1.885-3.49c-1.085 0-1.875-.264-2.37-.792-.476-.528-.714-1.349-.714-2.463V6.051c.666.02 1.161.166 1.485.44s.552.645.685 1.114c.209.743.476 1.711.8 2.903s.676 2.493 1.056 3.901h-.942z"/>
    </symbol>
  </defs>
</svg>
